<?xml version="1.0" ?><!-- Uploaded to: SVG Repo, www.svgrepo.com, Generator: SVG Repo Mixer Tools -->
<svg fill="#fa8922" width="800px" height="800px" viewBox="0 0 64 64" xmlns="http://www.w3.org/2000/svg"><title/><path d="M43,13H34.08l6.7-8.37a1,1,0,0,0-1.56-1.25L32,12.4l-7.22-9a1,1,0,0,0-1.56,1.25L29.92,13H21A13,13,0,0,0,8,26V48A13,13,0,0,0,21,61H43A13,13,0,0,0,56,48V26A13,13,0,0,0,43,13ZM54,48A11,11,0,0,1,43,59H21A11,11,0,0,1,10,48V26A11,11,0,0,1,21,15H43A11,11,0,0,1,54,26Z"/><path d="M42.35,34l-4.77,1.1a3.93,3.93,0,0,0,.06-2,4,4,0,0,0-4.79-3l-13,3A4,4,0,0,0,20.75,41a3.42,3.42,0,0,0,.9-.11l4.77-1.1a3.93,3.93,0,0,0-.06,2,4,4,0,0,0,3.89,3.11,4.25,4.25,0,0,0,.9-.11l13-3a4,4,0,0,0,3-4.8A4,4,0,0,0,42.35,34Zm2.59,5a2,2,0,0,1-1.24.89h0l-13,3a2.25,2.25,0,0,1-.47.06,2,2,0,0,1-.69-3.89,1,1,0,0,0-.36-1.93l-.23,0L21.15,39a1.56,1.56,0,0,1-.4,0,2,2,0,0,1-1.95-1.56,2,2,0,0,1,.25-1.5,2,2,0,0,1,1.25-.89l13-3a2,2,0,0,1,1.5.25,2,2,0,0,1-.35,3.57A1,1,0,0,0,35,37.78L42.8,36a2,2,0,0,1,2.14,3Z"/></svg>